<?xml version="1.0" encoding="UTF-8" standalone="no"?>
<!DOCTYPE svg PUBLIC "-//W3C//DTD SVG 1.1//EN" "http://www.w3.org/Graphics/SVG/1.1/DTD/svg11.dtd">
<svg width="100%" height="100%" viewBox="0 0 590 162" version="1.1" xmlns="http://www.w3.org/2000/svg" xmlns:xlink="http://www.w3.org/1999/xlink" xml:space="preserve" xmlns:serif="http://www.serif.com/" style="fill-rule:evenodd;clip-rule:evenodd;stroke-linejoin:round;stroke-miterlimit:2;">
    <g transform="matrix(1,0,0,1,-115.729,-1034.3)">
        <g transform="matrix(0.568283,0,0,0.564647,-336.954,432.575)">
            <g>
                <g transform="matrix(0.353491,0,0,0.353491,557.27,872.404)">
                    <g transform="matrix(2.91629,0,0,2.91629,-3516.16,-3521.46)">
                        <path d="M1675.82,1469.4L1675.82,1528.9C1675.82,1594.57 1622.5,1647.89 1556.83,1647.89C1491.15,1647.89 1437.84,1594.57 1437.84,1528.9L1437.84,1469.4C1520.35,1477.53 1599.65,1477.44 1675.82,1469.4Z" style="fill:white;"/>
                    </g>
                    <g transform="matrix(1,0,0,1,58.4546,-273.905)">
                        <path d="M619.785,1240.53C682.894,1196.08 759.844,1169.98 842.842,1169.98C1019.98,1169.98 1169.57,1288.88 1216.06,1451.17C1152.88,1517.1 1063.97,1558.16 965.545,1558.16C783.926,1558.16 634.707,1418.34 619.785,1240.53Z" style="fill:rgb(252,208,31);"/>
                    </g>
                </g>
                <g transform="matrix(1.19626,0,0,1.19626,330.014,377.465)">
                    <g transform="matrix(324.593,0,0,324.593,632.931,782.449)">
                        <path d="M0.104,-0.638C0.119,-0.638 0.131,-0.633 0.142,-0.623C0.152,-0.613 0.157,-0.6 0.157,-0.586C0.157,-0.571 0.152,-0.558 0.142,-0.548C0.132,-0.538 0.12,-0.533 0.105,-0.533C0.091,-0.533 0.079,-0.538 0.068,-0.549C0.057,-0.559 0.052,-0.572 0.052,-0.586C0.052,-0.6 0.057,-0.612 0.068,-0.622C0.078,-0.633 0.09,-0.638 0.104,-0.638ZM0.062,-0.449L0.151,-0.449L0.151,-0.068C0.151,0.01 0.121,0.065 0.061,0.097L-0.005,0.032C0.016,0.025 0.032,0.013 0.044,-0.005C0.056,-0.023 0.062,-0.044 0.062,-0.068L0.062,-0.449Z" style="fill:white;fill-rule:nonzero;"/>
                    </g>
                    <g transform="matrix(324.593,0,0,324.593,698.994,782.449)">
                        <path d="M0.278,-0.45C0.346,-0.45 0.403,-0.428 0.448,-0.384C0.493,-0.34 0.516,-0.285 0.516,-0.218C0.516,-0.153 0.493,-0.099 0.447,-0.056C0.401,-0.014 0.344,0.008 0.274,0.008C0.207,0.008 0.15,-0.014 0.105,-0.057C0.06,-0.101 0.037,-0.155 0.037,-0.22C0.037,-0.286 0.06,-0.341 0.106,-0.385C0.151,-0.428 0.209,-0.45 0.278,-0.45ZM0.273,-0.37C0.23,-0.37 0.195,-0.356 0.168,-0.328C0.141,-0.3 0.127,-0.264 0.127,-0.221C0.127,-0.178 0.141,-0.143 0.169,-0.116C0.197,-0.089 0.233,-0.075 0.277,-0.075C0.32,-0.075 0.356,-0.089 0.384,-0.116C0.412,-0.144 0.426,-0.179 0.426,-0.222C0.426,-0.265 0.411,-0.3 0.382,-0.328C0.353,-0.356 0.317,-0.37 0.273,-0.37Z" style="fill:white;fill-rule:nonzero;"/>
                    </g>
                    <g transform="matrix(324.593,0,0,324.593,872.153,782.449)">
                        <path d="M0.338,-0.449L0.434,-0.449L0.236,0.008L0.206,0.008L0.003,-0.449L0.1,-0.449L0.221,-0.173L0.338,-0.449Z" style="fill:white;fill-rule:nonzero;"/>
                    </g>
                    <g transform="matrix(324.593,0,0,324.593,1022.08,782.449)">
                        <path d="M0.109,-0.638C0.124,-0.638 0.136,-0.633 0.146,-0.623C0.157,-0.613 0.162,-0.601 0.162,-0.586C0.162,-0.572 0.157,-0.559 0.146,-0.549C0.136,-0.538 0.124,-0.533 0.109,-0.533C0.095,-0.533 0.083,-0.538 0.073,-0.549C0.062,-0.56 0.057,-0.572 0.057,-0.586C0.057,-0.6 0.062,-0.612 0.073,-0.622C0.083,-0.633 0.095,-0.638 0.109,-0.638ZM0.065,-0.449L0.154,-0.449L0.154,0.008L0.065,0.008L0.065,-0.449Z" style="fill:white;fill-rule:nonzero;"/>
                    </g>
                    <g transform="matrix(324.593,0,0,324.593,1089.11,782.449)">
                        <path d="M0.278,-0.45C0.346,-0.45 0.403,-0.428 0.448,-0.384C0.493,-0.34 0.516,-0.285 0.516,-0.218C0.516,-0.153 0.493,-0.099 0.447,-0.056C0.401,-0.014 0.344,0.008 0.274,0.008C0.207,0.008 0.15,-0.014 0.105,-0.057C0.06,-0.101 0.037,-0.155 0.037,-0.22C0.037,-0.286 0.06,-0.341 0.106,-0.385C0.151,-0.428 0.209,-0.45 0.278,-0.45ZM0.273,-0.37C0.23,-0.37 0.195,-0.356 0.168,-0.328C0.141,-0.3 0.127,-0.264 0.127,-0.221C0.127,-0.178 0.141,-0.143 0.169,-0.116C0.197,-0.089 0.233,-0.075 0.277,-0.075C0.32,-0.075 0.356,-0.089 0.384,-0.116C0.412,-0.144 0.426,-0.179 0.426,-0.222C0.426,-0.265 0.411,-0.3 0.382,-0.328C0.353,-0.356 0.317,-0.37 0.273,-0.37Z" style="fill:white;fill-rule:nonzero;"/>
                    </g>
                </g>
            </g>
        </g>
    </g>
</svg>
